<svg xmlns="http://www.w3.org/2000/svg" viewBox="0 0 305.06 54.54"><defs><style>.cls-1{fill:#212721;}</style></defs><g id="Layer_2" data-name="Layer 2"><g id="Layer_1-2" data-name="Layer 1"><g id="Layer_2-2" data-name="Layer 2"><g id="Layer_1-2-2" data-name="Layer 1-2"><path class="cls-1" d="M27.07,48.76a20.51,20.51,0,0,1-20.95-20V27.61C6.12,15.93,14.69,7.05,26.5,6.5h1.19c5.1,0,9.22,1.21,12.61,3.67,0,0,.23.16.61.46l-.62.79L39.72,11a19.83,19.83,0,0,0-12-3.49H26.58C15.3,8,7.13,16.49,7.13,27.62v.15a19.52,19.52,0,0,0,19,20c.28,0,.56,0,.84,0,.05,0,8.16-.51,13-4l.59.81C35.53,48.29,27.38,48.79,27,48.81m12.29-13.9c-3.15,3.82-6.37,6.37-11.84,6.37-7.34,0-12.51-6.15-12.51-14v-.15c0-7.64,5.17-13.86,12.51-13.86,5,0,8.46,2.4,11.46,6.14L49.89,11C45.25,4.49,38.36,0,27.64,0,11.76,0,0,12,0,27.27v.15A26.64,26.64,0,0,0,26.14,54.54H27c11.29,0,18.3-5.28,23.23-11.84h0Z"/><path class="cls-1" d="M165.77,30.92V7h1V30.92c0,9.39-4.84,15.95-13,17.55a21.62,21.62,0,0,1-4.25.39,29.26,29.26,0,0,1-4.38-.33c-8.2-1.49-13.29-8.38-13.29-18V7h1V30.54c0,9.23,4.66,15.58,12.45,17a26,26,0,0,0,8.26,0c7.61-1.5,12.15-7.7,12.15-16.57m-7-.36c0,7.35-3.83,10.79-9.67,10.79s-9.66-3.59-9.66-11.16V.24H124.67V30.49c0,16.4,9.36,24,24.27,24s24.57-7.41,24.57-24.35V.24H158.76Z"/><path class="cls-1" d="M100.35,47.63l-.83.55L89.89,33.66H71.75V47.9h-1V7.53H88.57a27.52,27.52,0,0,1,5.51.53,12.85,12.85,0,0,1,6.78,3.32l.11.11c1.19,1.16,2.79,3.25,2.79,7.82v.15a11.19,11.19,0,0,1-1.46,5.93,11.19,11.19,0,0,1-4.36,4.9,19.33,19.33,0,0,1-7,3.17ZM110.5,19.1V19c0-5.17-1.57-9.21-4.64-12.21-3.52-3.6-9.07-5.69-17.08-5.69H64V53.49H78.51V37.61h6.37L95.44,53.49h16.78L99.71,35.21c6.52-2.77,10.79-8.09,10.79-16.11"/><path class="cls-1" d="M95.89,20c0,3.82-2.84,6.22-7.79,6.22H78.52V13.63H88c4.87,0,7.86,2.1,7.86,6.22Zm5.51,5a10.41,10.41,0,0,0,1.35-5.51v-.15c0-4.19-1.42-6.06-2.49-7.11l-.11-.11a11.91,11.91,0,0,0-6.27-3,28.51,28.51,0,0,0-5.3-.52H71.75V32.67H90.08a19,19,0,0,0,7.3-3.2,10.38,10.38,0,0,0,4-4.48"/><path class="cls-1" d="M286.07,8.27H269.21V48.21h-1V8.27H251.34v-1h34.73ZM245.71,1.05V13.78h15.73V53.49H276V13.78h15.73V1.05Z"/><path class="cls-1" d="M227.38,37.66c-.14,3.65-1.37,6.2-3.88,8-.19.17-3.51,3.15-10.47,3.15-4.06,0-9.36-1-16-4.19l.43-.91C214.78,52,222.78,45,222.85,44.88c2.32-1.69,3.39-3.92,3.52-7.27v-.13c0-3.46-1.06-6.56-14-9.37l-1-.19c-13-3-15.06-5.52-15.06-10.51v-.15a9.24,9.24,0,0,1,3.76-7.74c.3-.27,8.31-7.19,23.32-.48L223,10c-14.39-6.42-22.2.28-22.28.34a8.33,8.33,0,0,0-3.38,7v.15c0,4.42,2,6.73,14.25,9.53l1,.18c13.69,3,14.8,6.45,14.8,10.36ZM214,20.82c-7.29-1.54-9.07-2.69-9.07-5.09v-.15c0-1.87,1.73-3.37,5.25-3.37,4.64,0,9.88,1.8,14.68,5.17L232,7.08C226.35,2.53,219.4.15,210.51.15c-12.58,0-20.3,7-20.3,16.78v.15c0,10.79,8.61,13.93,19.78,16.48,7.11,1.65,8.84,2.85,8.84,5v.15c0,2.24-2.1,3.6-6,3.6a27,27,0,0,1-17-6.3l-8.09,9.67c6.44,5.77,15.28,8.69,24.57,8.69,12.74,0,21.2-6.37,21.2-17.08v-.16c-.12-9.88-7.67-13.8-19.55-16.33"/><path class="cls-1" d="M304,1l-1.23,2-1.22-2h-1.11V5.68h1v-3l1.3,2h0l1.32-2v3h1V1Zm-8.22,0V2h1.42V5.68h1V2h1.42V1Z"/></g></g></g></g></svg>