<?xml version="1.0" encoding="utf-8"?>
<!-- Generator: Adobe Illustrator 25.2.1, SVG Export Plug-In . SVG Version: 6.00 Build 0)  -->
<svg version="1.1" id="Layer_1" xmlns="http://www.w3.org/2000/svg" xmlns:xlink="http://www.w3.org/1999/xlink" x="0px" y="0px"
	 viewBox="0 0 604 189" style="enable-background:new 0 0 604 189;" xml:space="preserve">
<style type="text/css">
	.st0{fill:#FFFFFF;}
	.st1{fill:url(#SVGID_1_);}
	.st2{fill:url(#SVGID_2_);}
	.st3{fill:url(#SVGID_3_);}
	.st4{fill:url(#SVGID_4_);}
</style>
<g>
	<g>
		<path class="st0" d="M47.8,180.6l-0.1-28.5l-14.1,23.6H30l-14.1-23.2v28.1H8.3v-43h6.6L32,166.1l16.8-28.5h6.6l0.1,43H47.8
			L47.8,180.6z"/>
		<path class="st0" d="M131.7,170.6h-21.5l-4.2,9.9h-8.2l19.3-43h7.9l19.4,43H136L131.7,170.6z M129,164.4l-8.1-18.8l-8,18.8H129z"
			/>
		<path class="st0" d="M194.2,178.4c-3.5-1.9-6.2-4.5-8.2-7.9s-3-7.1-3-11.4c0-4.2,1-8,3-11.4s4.8-6,8.3-7.9s7.4-2.9,11.8-2.9
			c3.5,0,6.7,0.6,9.6,1.8c2.9,1.2,5.4,3,7.4,5.3l-5.2,4.9c-3.1-3.4-6.9-5-11.5-5c-2.9,0-5.6,0.6-7.9,1.9c-2.3,1.3-4.2,3.1-5.5,5.4
			c-1.3,2.3-2,4.9-2,7.8c0,2.9,0.7,5.5,2,7.8s3.1,4.1,5.5,5.4c2.3,1.3,5,1.9,7.9,1.9c4.5,0,8.4-1.7,11.5-5.1l5.2,4.9
			c-2,2.3-4.5,4.1-7.4,5.3s-6.2,1.8-9.7,1.8C201.6,181.2,197.7,180.3,194.2,178.4z"/>
		<path class="st0" d="M295.7,180.6l-8.8-12.6c-0.4,0-0.9,0.1-1.7,0.1h-9.7v12.5h-8v-43h17.7c3.7,0,7,0.6,9.7,1.8
			c2.8,1.2,4.9,3,6.4,5.3s2.2,5,2.2,8.2s-0.8,6-2.4,8.4c-1.6,2.3-3.8,4.1-6.8,5.2l9.9,14.1H295.7z M292.8,146.6
			c-1.8-1.5-4.4-2.2-7.9-2.2h-9.3v17.1h9.3c3.5,0,6.1-0.7,7.9-2.2s2.7-3.6,2.7-6.4C295.5,150.1,294.6,148,292.8,146.6z"/>
		<path class="st0" d="M357.5,178.4c-3.5-1.9-6.3-4.5-8.3-7.9s-3-7.2-3-11.3c0-4.2,1-8,3-11.3c2-3.4,4.8-6,8.3-7.9s7.5-2.9,11.9-2.9
			s8.3,1,11.9,2.9c3.5,1.9,6.3,4.5,8.3,7.9s3,7.1,3,11.4c0,4.2-1,8-3,11.4s-4.8,6-8.3,7.9s-7.5,2.9-11.9,2.9
			C365,181.2,361,180.3,357.5,178.4z M377.1,172.3c2.3-1.3,4.1-3.1,5.4-5.4s2-4.9,2-7.8c0-2.9-0.7-5.5-2-7.8s-3.1-4.1-5.4-5.4
			c-2.3-1.3-4.9-1.9-7.7-1.9c-2.9,0-5.4,0.6-7.7,1.9c-2.3,1.3-4.1,3.1-5.4,5.4c-1.3,2.3-2,4.9-2,7.8c0,2.9,0.7,5.5,2,7.8
			s3.1,4.1,5.4,5.4c2.3,1.3,4.9,1.9,7.7,1.9S374.8,173.6,377.1,172.3z"/>
		<path class="st0" d="M442.7,140.4v18.4h22.9v2.8h-22.9v19h-3.1v-43h28.7v2.8H442.7z"/>
		<path class="st0" d="M515.2,137.6h3.1v43h-3.1V137.6z"/>
		<path class="st0" d="M578.4,140.4h-15.5v-2.8H597v2.8h-15.5v40.2h-3.1V140.4z"/>
	</g>
	<g>
		
			<linearGradient id="SVGID_1_" gradientUnits="userSpaceOnUse" x1="254.95" y1="691.9" x2="254.95" y2="586.6" gradientTransform="matrix(1 0 0 1 0 -578)">
			<stop  offset="0" style="stop-color:#DD0247"/>
			<stop  offset="1" style="stop-color:#9F1686"/>
		</linearGradient>
		<polygon class="st1" points="267.2,11.7 265.2,8.6 242.7,8.6 242.7,113.9 267.2,113.9 		"/>
		
			<linearGradient id="SVGID_2_" gradientUnits="userSpaceOnUse" x1="258.6728" y1="594.6232" x2="305.9744" y2="676.5518" gradientTransform="matrix(1 0 0 1 0 -578)">
			<stop  offset="0" style="stop-color:#890251"/>
			<stop  offset="1" style="stop-color:#C30141"/>
		</linearGradient>
		<polygon class="st2" points="302.6,67.4 302.6,100.5 295.1,100.5 267.2,56.7 267.2,11.7 		"/>
		
			<linearGradient id="SVGID_3_" gradientUnits="userSpaceOnUse" x1="299.2199" y1="676.5485" x2="346.5464" y2="594.5765" gradientTransform="matrix(1 0 0 1 0 -578)">
			<stop  offset="0" style="stop-color:#960656"/>
			<stop  offset="1" style="stop-color:#9F1686"/>
		</linearGradient>
		<polygon class="st3" points="338.1,11.7 302.6,67.4 302.6,100.5 310.1,100.5 338.1,56.5 		"/>
		
			<linearGradient id="SVGID_4_" gradientUnits="userSpaceOnUse" x1="350.35" y1="691.9" x2="350.35" y2="586.6" gradientTransform="matrix(1 0 0 1 0 -578)">
			<stop  offset="0" style="stop-color:#901A81"/>
			<stop  offset="1" style="stop-color:#C91347"/>
		</linearGradient>
		<polygon class="st4" points="340.1,8.6 338.1,11.7 338.1,113.9 362.6,113.9 362.6,8.6 		"/>
	</g>
</g>
</svg>
